<svg width="512" height="512" viewBox="0 0 512 512" xmlns="http://www.w3.org/2000/svg">

  <!-- Fondo verde -->
  <circle cx="256" cy="256" r="240" fill="#25D366"></circle>

  <!-- Silueta interna de WhatsApp -->
  <path d="M342 302c-6-3-34-17-39-18s-9-3-13 3c-3 4-15 18-18 22-3 3-6 4-12 1s-23-9-44-28c-16-14-28-32-31-38s0-9 3-12l8-10c4-4 5-7 7-11 1-4-1-8-2-11s-13-31-19-42c-5-12-10-10-14-10-4 0-8 0-12 0-4 0-11 1-17 8s-22 22-22 53 22 61 25 66c3 4 44 67 108 92 15 6 26 10 35 13 15 5 28 4 38 2s36-15 41-30c5-14 5-27 4-30-1-3-5-4-11-7z" fill="white"></path>
</svg>
